<?xml version="1.0" encoding="UTF-8"?>
<svg id="Layer_1" data-name="Layer 1" xmlns="http://www.w3.org/2000/svg" viewBox="0 0 113.78 104">
  <defs>
    <style>
      .cls-1 {
        fill: #fff;
      }
    </style>
  </defs>
  <polygon class="cls-1" points="12.24 13.05 12.45 13.05 12.35 13.11 12.34 13.11 12.24 13.05"/>
  <polygon class="cls-1" points="106.9 13.05 106.8 13.11 106.79 13.11 106.69 13.05 106.9 13.05"/>
  <rect class="cls-1" x="106.79" y="12.8" width=".12" height=".57" transform="translate(8.38 56.58) rotate(-30.81)"/>
  <g>
    <line class="cls-1" x1="12.34" y1="13.11" x2="12.24" y2="13.05"/>
    <rect class="cls-1" x="12.01" y="13.02" width=".57" height=".12" transform="translate(-5.24 16.95) rotate(-59.24)"/>
  </g>
  <path class="cls-1" d="M60.07,101.94l-14.67-8.71v-26.93c0-2.64-.44-5.25-1.31-7.77-.5-1.43-1.12-2.79-1.85-4.05-2.07-3.6-5.05-6.6-8.63-8.68-2.04-1.18-4.47-1.19-6.51-.01-2.04,1.17-3.25,3.28-3.25,5.63v28.89h-.65s-11.46-6.26-11.46-6.26V12.89l.46-.28h.14l47.73,8.08v81.25ZM46.4,92.66l12.67,7.53V21.53L12.74,13.68v59.76l10.11,5.53v-27.56c0-2.72,1.4-5.15,3.75-6.5,2.35-1.35,5.16-1.35,7.51.02,3.73,2.17,6.84,5.3,8.99,9.04.76,1.32,1.41,2.74,1.93,4.23.91,2.62,1.37,5.34,1.37,8.09v26.36Z"/>
  <polygon class="cls-1" points="106.61 13.55 59.57 6.95 12.53 13.55 12.39 12.56 59.57 5.94 106.75 12.56 106.61 13.55"/>
  <rect class="cls-1" x="59.23" y="16.61" width="47.89" height="1" transform="translate(-1.69 14.13) rotate(-9.61)"/>
  <polygon class="cls-1" points="59.82 101.5 59.32 100.63 106.4 73.46 106.4 13.17 106.77 13.17 106.8 13.12 106.79 12.61 106.94 12.61 107.4 12.89 107.4 74.03 107.15 74.18 59.82 101.5"/>
  <rect class="cls-1" x="22.46" y="74.72" width="24.34" height="1" transform="translate(-25.76 18.56) rotate(-22.1)"/>
</svg>