<?xml version="1.0" encoding="UTF-8"?>
<svg id="Layer_1" data-name="Layer 1" xmlns="http://www.w3.org/2000/svg" viewBox="0 0 113.78 104">
  <defs>
    <style>
      .cls-1 {
        fill: #fff;
      }
    </style>
  </defs>
  <path class="cls-1" d="M77.78,95.78l-20.15-2.93v-29.48c0-.65-.03-1.31-.08-1.94l1-.09c.06.66.09,1.35.09,2.03v28.61s18.15,2.64,18.15,2.64V16.17s-63.85-1.76-63.85-1.76v69.7s14.22,2.71,14.22,2.71l-.09.47.5-.02v.64l-15.63-2.97V13.38s.51.01.51.01l65.33,1.81v80.58Z"/>
  <path class="cls-1" d="M27.56,87.26h-1v-29.01c0-5.4,2.02-10.21,5.53-13.2,2.93-2.49,6.69-3.51,10.58-2.87,8.17,1.35,14.99,9.58,15.87,19.15l-1,.09c-.84-9.13-7.3-16.98-15.04-18.26-3.6-.59-7.06.34-9.77,2.64-3.29,2.79-5.18,7.32-5.18,12.43v29.01Z"/>
  <path class="cls-1" d="M77.4,95.54c-.08,0-.17-.02-.25-.05-.23-.1-.38-.33-.38-.58V15.27s29.5-5.19,29.5-5.19v58.16s-28.44,27.12-28.44,27.12c-.12.11-.27.17-.43.17ZM77.15,94.64s0,0,0,0h0ZM77.78,16.11v77.93s27.5-26.23,27.5-26.23V11.27s-27.5,4.83-27.5,4.83Z"/>
  <polygon class="cls-1" points="12.54 14.38 12.32 13.41 35.51 8.22 35.58 8.22 105.79 10.17 105.76 11.17 35.61 9.22 12.54 14.38"/>
  <rect class="cls-1" x="24.15" y="76.88" width="36.79" height="1" transform="translate(-35.01 35.16) rotate(-32.63)"/>
</svg>