<?xml version="1.0" encoding="UTF-8"?>
<svg id="Layer_1" data-name="Layer 1" xmlns="http://www.w3.org/2000/svg" viewBox="0 0 113.78 104">
  <defs>
    <style>
      .cls-1 {
        fill: #fff;
      }
    </style>
  </defs>
  <path class="cls-1" d="M95.26,94.95l-21.03-1.08v-31.06c0-10.26-8.04-19.02-17.91-19.52-4.52-.22-8.83,1.31-12.14,4.33-3.63,3.31-5.71,8.17-5.71,13.31v31.12l-21.03-1.08V12.87l77.83,1.41v80.67ZM75.27,92.92l18.96.97V15.26l-75.75-1.37v76.13l18.96.97v-30.06c0-5.42,2.2-10.54,6.03-14.04,3.52-3.21,8.09-4.86,12.91-4.6,10.42.53,18.9,9.74,18.9,20.52v30.12Z"/>
  <path class="cls-1" d="M95.26,94.49l-1.03-.13,2.58-18.81V12.11s-1.71,3.02-1.71,3.02l-.73-.71,2.4-3.68c.18-.17.45-.22.68-.13.23.09.38.31.38.56v64.45l-2.59,18.88Z"/>
  <rect class="cls-1" x="39.26" y="52.52" width="1.04" height="10.41"/>
  <polygon class="cls-1" points="18.25 13.79 17.66 12.97 24.12 9.12 97.34 10.41 97.32 11.41 24.44 10.12 18.25 13.79"/>
  <polygon class="cls-1" points="38.77 92.05 37.75 91.92 39.26 62.87 40.29 63 38.77 92.05"/>
</svg>