<?xml version="1.0" encoding="UTF-8"?>
<svg id="Layer_1" data-name="Layer 1" xmlns="http://www.w3.org/2000/svg" viewBox="0 0 1341.33 213.33">
  <defs>
    <style>
      .cls-1 {
        fill: #fffbfa;
      }
    </style>
  </defs>
  <path class="cls-1" d="M18.39,43.57h15.8l6.35,26.47c1.41,6.09,2.91,15.62,2.91,15.62h.18s1.68-8.65,3.09-15l5.91-27.09h14.47l5.91,26.91c1.41,6.44,3,15.18,3,15.18h.18s1.76-9.53,3.18-15.79l6.27-26.3h15.71l-17.3,63.09h-15.27l-6.62-30.27c-1.15-5.03-2.21-11.74-2.21-11.74h-.18s-1.06,6.71-2.12,11.74l-6.62,30.27h-15.35l-17.3-63.09Z"/>
  <path class="cls-1" d="M105.65,43.57h15.62v23.91h22.15v-23.91h15.62v63.09h-15.62v-26.29h-22.15v26.29h-15.62v-63.09Z"/>
  <path class="cls-1" d="M167.68,43.57h47.83v12.88h-32.21v11.29h27.62v12.18h-27.62v13.5h32.74v13.24h-48.36v-63.09Z"/>
  <path class="cls-1" d="M223.09,43.57h30.18c12.53,0,22.06,6.44,22.06,18.18,0,7.32-3.62,12.71-10.94,15.27v.26c5.47,1.85,8.29,5.29,9.18,11.56,1.32,8.29.44,16.24,2.65,17.03v.79h-15.18c-1.68-.97-1.41-8.38-2.38-14.65-.79-5.82-3.79-9-10.5-9h-9.44v23.65h-15.62v-63.09ZM250.44,71.46c6.18,0,9.35-2.91,9.35-7.68s-3-7.85-9-7.85h-12.09v15.53h11.74Z"/>
  <path class="cls-1" d="M282.29,43.57h47.83v12.88h-32.21v11.29h27.62v12.18h-27.62v13.5h32.74v13.24h-48.36v-63.09Z"/>
  <path class="cls-1" d="M357.38,99.25c-5.47-6-8.47-14.29-8.47-23.91s3.35-18.62,9.35-24.62c5.21-5.29,12.53-8.38,21.62-8.38,16.24,0,25.94,8.65,27.97,21.88h-15.18c-1.15-5.12-5.38-9-12.27-9-10.41,0-15.62,8.65-15.62,20.12s6,20.12,15.88,20.12c8.21,0,13.06-5.47,13.68-11.03v-.18h-11.82v-11.47h26.3v33.88h-10.94l-.88-7.59h-.18c-4.15,6.44-10.32,9-17.91,9-9,0-16.32-3.18-21.53-8.82Z"/>
  <path class="cls-1" d="M416.41,43.57h30.18c12.53,0,22.06,6.44,22.06,18.18,0,7.32-3.62,12.71-10.94,15.27v.26c5.47,1.85,8.29,5.29,9.18,11.56,1.32,8.29.44,16.24,2.65,17.03v.79h-15.18c-1.68-.97-1.41-8.38-2.38-14.65-.79-5.82-3.79-9-10.5-9h-9.44v23.65h-15.62v-63.09ZM443.76,71.46c6.18,0,9.35-2.91,9.35-7.68s-3-7.85-9-7.85h-12.09v15.53h11.74Z"/>
  <path class="cls-1" d="M475.61,43.57h47.83v12.88h-32.21v11.29h27.62v12.18h-27.62v13.5h32.74v13.24h-48.36v-63.09Z"/>
  <path class="cls-1" d="M549.73,43.57h16.06l22.77,63.09h-16.41l-3.71-11.38h-22.06l-3.62,11.38h-15.71l22.68-63.09ZM564.81,84.08l-4.77-15.27c-1.06-3.27-2.47-8.91-2.47-8.91h-.18s-1.5,5.65-2.56,8.91l-4.85,15.27h14.82Z"/>
  <path class="cls-1" d="M600.55,56.81h-18.35v-13.24h52.5v13.24h-18.53v49.86h-15.62v-49.86Z"/>
  <path class="cls-1" d="M654.28,43.57h15.62v63.09h-15.62v-63.09Z"/>
  <path class="cls-1" d="M678.54,43.57h26.91c17.47,0,29.21,12.62,29.21,31.94,0,11.12-3.88,20.03-10.94,25.41-4.94,3.71-11.29,5.74-19.24,5.74h-25.94v-63.09ZM703.34,93.52c10.24,0,15.53-6.44,15.53-18s-5.56-18.88-15.35-18.88h-9.35v36.88h9.18Z"/>
  <path class="cls-1" d="M740.75,43.57h47.83v12.88h-32.21v11.29h27.62v12.18h-27.62v13.5h32.74v13.24h-48.36v-63.09Z"/>
  <path class="cls-1" d="M814.86,43.57h16.06l22.77,63.09h-16.41l-3.71-11.38h-22.06l-3.62,11.38h-15.71l22.68-63.09ZM829.95,84.08l-4.77-15.27c-1.06-3.27-2.47-8.91-2.47-8.91h-.18s-1.5,5.65-2.56,8.91l-4.85,15.27h14.83Z"/>
  <path class="cls-1" d="M853.77,86.81h15.71c.71,6.35,4.85,9,12.35,9,5.12,0,10.15-1.85,10.15-6.62,0-5.03-5.12-6.09-13.77-8.21-10.94-2.56-22.5-5.91-22.5-19.15s10.94-19.41,25.06-19.41,24.27,6.18,24.88,19.41h-15.27c-.62-4.85-4.32-7.59-10.15-7.59-5.47,0-9.09,2.38-9.09,5.91,0,4.41,4.85,5.47,14.29,7.59,11.74,2.74,22.33,6.35,22.33,19.85s-11.29,20.56-25.85,20.56c-16.77,0-27.8-7.41-28.15-21.35Z"/>
  <path class="cls-1" d="M927.8,43.57h30.44c6.53,0,11.38,1.59,14.74,4.32,3.62,3,5.47,7.06,5.47,12.09,0,6.26-3.27,10.24-8.82,12.35v.26c6.88,2.12,11.29,7.94,11.29,15.44,0,6.35-2.29,10.94-6.44,14.12-3.71,2.91-8.91,4.5-15.53,4.5h-31.15v-63.09ZM955.95,68.55c4.5,0,7.59-2.21,7.59-6.35s-2.91-6.27-7.5-6.27h-12.79v12.62h12.71ZM957.18,94.14c5.12,0,8.29-2.91,8.29-7.41,0-5.03-3.71-7.59-8.47-7.59h-13.77v15h13.94Z"/>
  <path class="cls-1" d="M987,43.57h47.83v12.88h-32.21v11.29h27.62v12.18h-27.62v13.5h32.74v13.24h-48.36v-63.09Z"/>
  <path class="cls-1" d="M1038.53,75.34c0-18.79,12.27-33,31.06-33,7.32,0,13.5,2.12,18,5.56,5.47,4.15,8.65,10.32,9.44,17.38h-15.62c-.79-5.65-5.21-9.97-11.91-9.97-10.24,0-15.09,8.56-15.09,20.03s5.82,19.94,15.18,19.94c6.97,0,11.56-4.41,12.27-10.5h15.62c-.44,6.26-3.26,12-7.59,16.15-4.85,4.68-11.29,7.15-20.21,7.15-18.53,0-31.15-13.85-31.15-32.74Z"/>
  <path class="cls-1" d="M1100.47,75.25c0-18.88,12.09-32.91,31.15-32.91s31.24,14.03,31.24,32.91-12.09,32.91-31.24,32.91-31.15-14.03-31.15-32.91ZM1146.97,75.25c0-11.47-5.03-20.3-15.27-20.3s-15.35,8.82-15.35,20.3,5.21,20.21,15.35,20.21,15.27-8.74,15.27-20.21Z"/>
  <path class="cls-1" d="M1168.94,43.57h21l7.68,27.62c1.15,3.97,3.62,14.38,3.62,14.38h.18s2.47-10.41,3.53-14.38l7.77-27.62h21.18v63.09h-14.29v-31.77c0-2.56.26-12.62.26-12.62h-.18s-2.21,9.44-2.91,11.74l-9.09,32.65h-12.88l-9-32.56c-.71-2.29-2.91-11.82-2.91-11.82h-.18s.26,10.15.26,12.71v31.68h-14.03v-63.09Z"/>
  <path class="cls-1" d="M1242.52,43.57h47.83v12.88h-32.21v11.29h27.62v12.18h-27.62v13.5h32.74v13.24h-48.36v-63.09Z"/>
  <path class="cls-1" d="M101.5,138.57h47.83v12.88h-32.21v11.29h27.62v12.18h-27.62v13.5h32.74v13.24h-48.36v-63.09Z"/>
  <path class="cls-1" d="M173.77,168.58l-19.15-30h17.82l10.68,18.35h.18l10.85-18.35h16.94l-18.71,29.83,20.91,33.27h-18.44l-11.82-21.35h-.18l-12.27,21.35h-17.74l20.91-33.09Z"/>
  <path class="cls-1" d="M210.03,170.34c0-18.79,12.27-33,31.06-33,7.32,0,13.5,2.12,18,5.56,5.47,4.15,8.65,10.32,9.44,17.38h-15.62c-.79-5.65-5.21-9.97-11.91-9.97-10.24,0-15.09,8.56-15.09,20.03s5.82,19.94,15.18,19.94c6.97,0,11.56-4.41,12.27-10.5h15.62c-.44,6.26-3.27,12-7.59,16.15-4.85,4.68-11.29,7.15-20.21,7.15-18.53,0-31.15-13.85-31.15-32.74Z"/>
  <path class="cls-1" d="M274.53,138.57h47.83v12.88h-32.21v11.29h27.62v12.18h-27.62v13.5h32.74v13.24h-48.36v-63.09Z"/>
  <path class="cls-1" d="M329.94,138.57h28.41c7.68,0,13.32,2.12,17.21,5.82,4.06,3.79,6.35,9.18,6.35,15.53,0,12.09-8.38,20.65-21.35,20.65h-14.74v21.09h-15.88v-63.09ZM357.38,168.22c5.65,0,8.82-3.35,8.82-8.38s-3.27-8.12-8.82-8.12h-11.56v16.5h11.56Z"/>
  <path class="cls-1" d="M403,151.81h-18.35v-13.24h52.5v13.24h-18.53v49.86h-15.62v-49.86Z"/>
  <path class="cls-1" d="M443.05,138.57h15.62v63.09h-15.62v-63.09Z"/>
  <path class="cls-1" d="M464.76,170.25c0-18.88,12.09-32.91,31.15-32.91s31.24,14.03,31.24,32.91-12.09,32.91-31.24,32.91-31.15-14.03-31.15-32.91ZM511.26,170.25c0-11.47-5.03-20.3-15.27-20.3s-15.35,8.82-15.35,20.3,5.21,20.21,15.35,20.21,15.27-8.74,15.27-20.21Z"/>
  <path class="cls-1" d="M533.22,138.57h15.71l18.71,31.68c.97,1.76,4.32,8.03,4.32,8.03h.18s-.18-7.59-.18-9.79v-29.91h15.27v63.09h-15.71l-18.53-31.24c-1.06-1.68-4.5-8.47-4.5-8.47h-.18s.18,8.12.18,10.32v29.38h-15.27v-63.09Z"/>
  <path class="cls-1" d="M614.14,138.57h16.06l22.77,63.09h-16.41l-3.71-11.38h-22.06l-3.62,11.38h-15.71l22.68-63.09ZM629.23,179.08l-4.77-15.27c-1.06-3.27-2.47-8.91-2.47-8.91h-.18s-1.5,5.65-2.56,8.91l-4.85,15.27h14.83Z"/>
  <path class="cls-1" d="M657.37,138.57h15.62v49.86h28.33v13.24h-43.94v-63.09Z"/>
  <path class="cls-1" d="M720.9,138.57h28.41c7.68,0,13.32,2.12,17.21,5.82,4.06,3.79,6.35,9.18,6.35,15.53,0,12.09-8.38,20.65-21.35,20.65h-14.74v21.09h-15.88v-63.09ZM748.34,168.22c5.65,0,8.82-3.35,8.82-8.38s-3.26-8.12-8.82-8.12h-11.56v16.5h11.56Z"/>
  <path class="cls-1" d="M778.42,138.57h30.18c12.53,0,22.06,6.44,22.06,18.18,0,7.32-3.62,12.71-10.94,15.27v.26c5.47,1.85,8.29,5.29,9.18,11.56,1.32,8.29.44,16.24,2.65,17.03v.79h-15.18c-1.68-.97-1.41-8.38-2.38-14.65-.79-5.82-3.79-9-10.5-9h-9.44v23.65h-15.62v-63.09ZM805.78,166.46c6.18,0,9.35-2.91,9.35-7.68s-3-7.85-9-7.85h-12.09v15.53h11.74Z"/>
  <path class="cls-1" d="M835.07,170.25c0-18.88,12.09-32.91,31.15-32.91s31.24,14.03,31.24,32.91-12.09,32.91-31.24,32.91-31.15-14.03-31.15-32.91ZM881.57,170.25c0-11.47-5.03-20.3-15.27-20.3s-15.35,8.82-15.35,20.3,5.21,20.21,15.35,20.21,15.27-8.74,15.27-20.21Z"/>
  <path class="cls-1" d="M903.54,138.57h26.91c17.47,0,29.21,12.62,29.21,31.94,0,11.12-3.88,20.03-10.94,25.41-4.94,3.71-11.29,5.74-19.24,5.74h-25.94v-63.09ZM928.33,188.52c10.24,0,15.53-6.44,15.53-18s-5.56-18.88-15.35-18.88h-9.35v36.88h9.18Z"/>
  <path class="cls-1" d="M965.3,179.43v-40.86h15.62v41.38c0,6.18,3.18,10.32,10.85,10.32,7.24,0,10.68-4.41,10.68-10.59v-41.12h15.62v40.86c0,14.56-8.74,23.38-26.3,23.38s-26.47-8.65-26.47-23.38Z"/>
  <path class="cls-1" d="M1023.71,170.34c0-18.79,12.26-33,31.06-33,7.32,0,13.5,2.12,18,5.56,5.47,4.15,8.65,10.32,9.44,17.38h-15.62c-.79-5.65-5.21-9.97-11.91-9.97-10.24,0-15.09,8.56-15.09,20.03s5.82,19.94,15.18,19.94c6.97,0,11.56-4.41,12.27-10.5h15.62c-.44,6.26-3.26,12-7.59,16.15-4.85,4.68-11.29,7.15-20.21,7.15-18.53,0-31.15-13.85-31.15-32.74Z"/>
  <path class="cls-1" d="M1102.41,151.81h-18.35v-13.24h52.5v13.24h-18.53v49.86h-15.62v-49.86Z"/>
  <path class="cls-1" d="M1138.5,181.81h15.71c.71,6.35,4.85,9,12.35,9,5.12,0,10.15-1.85,10.15-6.62,0-5.03-5.12-6.09-13.77-8.21-10.94-2.56-22.5-5.91-22.5-19.15s10.94-19.41,25.06-19.41,24.27,6.18,24.88,19.41h-15.27c-.62-4.85-4.32-7.59-10.15-7.59-5.47,0-9.09,2.38-9.09,5.91,0,4.41,4.85,5.47,14.29,7.59,11.74,2.74,22.33,6.35,22.33,19.85s-11.29,20.56-25.85,20.56c-16.77,0-27.8-7.41-28.15-21.35Z"/>
  <path class="cls-1" d="M1212.7,193.99c0,4.68-3.53,8.12-8.29,8.12s-8.21-3.44-8.21-8.12,3.44-8.03,8.21-8.03,8.29,3.35,8.29,8.03Z"/>
</svg>