<?xml version="1.0" encoding="UTF-8"?>
<svg id="Layer_1" data-name="Layer 1" xmlns="http://www.w3.org/2000/svg" viewBox="0 0 500.33 45.02">
  <path d="M0,1.08h17.14c12.13,0,18.19,4.98,18.19,14.94s-6.05,15.07-18.13,15.07h-3.71v12.85H0V1.08h0ZM22.71,16.09c0-1.6-.42-2.74-1.27-3.42-.85-.68-2.24-1.02-4.18-1.02h-3.77v8.88h3.77c1.94,0,3.33-.34,4.18-1.02.85-.68,1.27-1.82,1.27-3.42"/>
  <path d="M41.22,1.08h18.93c5.9,0,10.37,1.18,13.4,3.54,3.03,2.36,4.55,5.86,4.55,10.5,0,5.56-2.17,9.68-6.5,12.36l9.16,16.45h-14.36l-7.05-13.74h-4.95v13.74h-13.18V1.08ZM64.92,15.73c0-1.6-.45-2.76-1.36-3.48-.91-.72-2.39-1.08-4.46-1.08h-4.7v9.12h4.7c2.06,0,3.55-.36,4.46-1.08.91-.72,1.36-1.88,1.36-3.48"/>
  <path d="M82.61,22.69c0-7.16,1.97-12.73,5.91-16.72,3.94-3.98,9.46-5.97,16.55-5.97s12.45,1.94,16.31,5.82c3.86,3.88,5.79,9.36,5.79,16.44s-1.96,12.8-5.88,16.78c-3.92,3.98-9.45,5.97-16.59,5.97s-12.45-1.94-16.31-5.82c-3.86-3.88-5.78-9.38-5.78-16.51M97.16,22.51c0,7.2,2.58,10.8,7.74,10.8s7.73-3.6,7.73-10.8-2.58-10.8-7.73-10.8c-5.16,0-7.74,3.6-7.74,10.8"/>
  <path d="M133.36,1.08h18.13c7.59,0,13.33,1.79,17.2,5.37,3.88,3.58,5.82,8.83,5.82,15.76s-1.97,12.43-5.91,16.15c-3.94,3.72-9.64,5.58-17.11,5.58h-18.13V1.08ZM160.28,22.39c0-6.6-2.77-9.9-8.29-9.9h-4.89v20.05h4.89c5.53,0,8.29-3.38,8.29-10.14"/>
  <path d="M180.39,25.99V1.08h14.05v25.51c0,2.36.42,4.07,1.27,5.13.85,1.06,2.22,1.59,4.11,1.59s3.27-.53,4.12-1.59c.85-1.06,1.27-2.77,1.27-5.13V1.08h14.05v24.91c0,6.24-1.65,10.97-4.95,14.2-3.3,3.22-8.19,4.83-14.67,4.83-12.83,0-19.25-6.34-19.25-19.03"/>
  <path d="M225.13,22.99c0-7.32,1.93-12.98,5.79-16.99C234.77,2,240.21,0,247.22,0c11.06,0,17.45,5.16,19.19,15.48l-13.99,1.5c-.41-1.88-1.07-3.23-1.98-4.05-.91-.82-2.17-1.23-3.77-1.23-2.27,0-3.95.87-5.04,2.61-1.09,1.74-1.64,4.43-1.64,8.07s.58,6.52,1.73,8.28c1.16,1.76,2.95,2.64,5.38,2.64,3.51,0,5.51-1.92,6-5.76h13.99c-.29,5.52-2.22,9.81-5.79,12.88-3.57,3.06-8.43,4.59-14.57,4.59-6.93,0-12.26-1.9-16-5.7-3.73-3.8-5.6-9.24-5.6-16.33"/>
  <polygon points="281.57 12.78 269.25 12.78 269.25 1.08 307.93 1.08 307.93 12.78 295.62 12.78 295.62 43.94 281.57 43.94 281.57 12.78"/>
  <path d="M326.19,1.08h18.13c7.59,0,13.33,1.79,17.2,5.37,3.88,3.58,5.82,8.83,5.82,15.76s-1.97,12.43-5.91,16.15c-3.94,3.72-9.64,5.58-17.11,5.58h-18.13V1.08ZM353.11,22.39c0-6.6-2.77-9.9-8.29-9.9h-4.89v20.05h4.89c5.53,0,8.29-3.38,8.29-10.14"/>
  <polygon points="373.53 1.08 406.39 1.08 406.39 11.59 387.33 11.59 387.33 17.05 405.15 17.05 405.15 27.55 387.33 27.55 387.33 33.43 407.62 33.43 406.57 43.94 373.53 43.94 373.53 1.08"/>
  <path d="M412.88,1.08h17.14c12.13,0,18.19,4.98,18.19,14.94s-6.04,15.07-18.13,15.07h-3.71v12.85h-13.49V1.08h0ZM435.59,16.09c0-1.6-.42-2.74-1.27-3.42-.85-.68-2.24-1.02-4.18-1.02h-3.77v8.88h3.77c1.94,0,3.33-.34,4.18-1.02.85-.68,1.27-1.82,1.27-3.42"/>
  <polygon points="463.63 12.78 451.31 12.78 451.31 1.08 489.99 1.08 489.99 12.78 477.68 12.78 477.68 43.94 463.63 43.94 463.63 12.78"/>
  <path d="M494.37,33.09c3.29,0,5.96,2.67,5.96,5.96s-2.67,5.96-5.96,5.96-5.96-2.67-5.96-5.96,2.67-5.96,5.96-5.96"/>
</svg>