<?xml version="1.0" encoding="UTF-8"?>
<svg id="Layer_1" data-name="Layer 1" xmlns="http://www.w3.org/2000/svg" viewBox="0 0 103.78 101.78">
  <defs>
    <style>
      .cls-1 {
        fill: #fff;
      }

      .cls-2 {
        fill: none;
      }

      .cls-3 {
        fill: #030303;
      }
    </style>
  </defs>
  <polygon class="cls-1" points="99.55 11.48 99.55 71.25 53.21 98 53.21 19.33 99.55 11.48"/>
  <polygon class="cls-1" points="96.81 10.93 52.71 18.4 8.59 10.93 9.16 10.85 52.71 4.74 96.27 10.85 96.81 10.93"/>
  <g>
    <path class="cls-3" d="M38.55,64.09v5.29l-21.55,8.57v-28.74c0-2.35,1.21-4.46,3.25-5.63,2.03-1.17,4.47-1.17,6.5.01,3.58,2.09,6.57,5.09,8.63,8.68.74,1.27,1.36,2.63,1.85,4.06.87,2.51,1.32,5.12,1.32,7.76Z"/>
    <path class="cls-3" d="M39.55,64.09v4.89l-1,.4v-5.29c0-2.64-.45-5.25-1.32-7.76-.49-1.43-1.11-2.79-1.85-4.06-2.06-3.59-5.05-6.59-8.63-8.68-2.03-1.18-4.47-1.18-6.5-.01-2.04,1.17-3.25,3.28-3.25,5.63v28.74l-.39.16h-.01l-.13.05v-.05l-.05-.54-.42-4.43v-23.93c0-2.71,1.4-5.14,3.75-6.5,2.35-1.35,5.16-1.34,7.51.02,3.73,2.17,6.84,5.3,8.99,9.04.76,1.32,1.41,2.74,1.93,4.23.91,2.62,1.37,5.34,1.37,8.09Z"/>
    <polygon class="cls-1" points="5.38 10.84 5.59 10.84 5.49 10.9 5.48 10.9 5.38 10.84"/>
    <polygon class="cls-1" points="100.04 10.84 99.94 10.9 99.93 10.9 99.83 10.84 100.04 10.84"/>
    <rect class="cls-3" x="99.93" y="10.59" width=".12" height=".57" transform="translate(8.77 53.24) rotate(-31.12)"/>
    <g>
      <line class="cls-2" x1="5.48" y1="10.9" x2="5.38" y2="10.84"/>
      <rect class="cls-3" x="5.15" y="10.82" width=".57" height=".12" transform="translate(-6.68 9.91) rotate(-58.91)"/>
    </g>
    <g>
      <path class="cls-1" d="M6.97,11.16l-1.35-.23-.12-.02h-.02s-.09.06-.09.06v60.57l11.03,6.03.06.04s.02,0,.02-.01v-28.39c0-5.4,5.84-8.76,10.51-6.05,3.73,2.17,6.73,5.24,8.81,8.86.76,1.31,1.39,2.7,1.89,4.14.87,2.51,1.34,5.19,1.34,7.93v26.65l13.65,8.11h.02s0-79.94,0-79.94L6.97,11.16ZM52.21,97.98l-12.66-7.53v-26.36c0-2.75-.46-5.47-1.37-8.09-.52-1.49-1.17-2.91-1.93-4.23-2.15-3.74-5.26-6.87-8.99-9.04-2.35-1.36-5.16-1.37-7.51-.02-2.35,1.36-3.75,3.79-3.75,6.5v27.57l-10.12-5.54V11.48l46.33,7.85v78.65Z"/>
      <path class="cls-3" d="M52.71,18.4L8.59,10.93h-.01l-.49-.08-1.12-.19-1.42-.24h-.06s-.14-.01-.14-.01l-.47.27v61.15l11.47,6.28h.65v-28.9c0-2.35,1.21-4.46,3.25-5.63,2.03-1.17,4.47-1.17,6.5.01,3.58,2.09,6.57,5.09,8.63,8.68.74,1.27,1.36,2.63,1.85,4.06.87,2.51,1.32,5.12,1.32,7.76v26.93l14.66,8.72V18.48l-.5-.08ZM39.55,64.09c0-2.75-.46-5.47-1.37-8.09-.52-1.49-1.17-2.91-1.93-4.23-2.15-3.74-5.26-6.87-8.99-9.04-2.35-1.36-5.16-1.37-7.51-.02-2.35,1.36-3.75,3.79-3.75,6.5v27.57l-10.12-5.54V11.48l46.33,7.85v78.65l-12.66-7.53v-26.36Z"/>
      <path class="cls-1" d="M52.21,19.33v78.65l-12.66-7.53v-26.36c0-2.75-.46-5.47-1.37-8.09-.52-1.49-1.17-2.91-1.93-4.23-2.15-3.74-5.26-6.87-8.99-9.04-2.35-1.36-5.16-1.37-7.51-.02-2.35,1.36-3.75,3.79-3.75,6.5v27.57l-10.12-5.54V11.48l46.33,7.85Z"/>
    </g>
    <g>
      <polygon class="cls-1" points="99.82 10.85 96.27 10.85 52.71 4.74 9.16 10.85 5.61 10.85 6.97 10.66 52.72 4.24 98.41 10.65 98.42 10.65 99.82 10.85"/>
      <polygon class="cls-3" points="99.89 10.35 99.87 10.51 99.87 10.52 99.85 10.63 99.84 10.73 99.82 10.85 99.81 10.93 99.81 10.97 99.76 11.34 99.55 11.31 98.47 11.16 96.82 10.93 96.81 10.93 96.27 10.85 52.71 4.74 9.16 10.85 8.59 10.93 8.58 10.93 6.97 11.16 6.96 11.16 5.67 11.34 5.62 10.93 5.61 10.85 5.6 10.85 5.59 10.73 5.58 10.63 5.55 10.42 5.54 10.35 52.71 3.73 99.89 10.35"/>
    </g>
    <g>
      <line class="cls-2" x1="99.93" y1="10.9" x2="52.71" y2="18.9"/>
      <polygon class="cls-3" points="100.02 11.4 99.55 11.48 53.21 19.33 52.8 19.4 52.72 18.93 52.72 18.91 52.63 18.41 52.71 18.4 96.81 10.93 96.82 10.93 97.25 10.85 98.41 10.65 98.42 10.65 99.85 10.41 99.87 10.51 99.87 10.52 99.88 10.61 99.93 10.85 99.93 10.88 99.94 10.9 99.94 10.92 100.02 11.4"/>
    </g>
    <polygon class="cls-3" points="100.55 10.68 100.55 71.83 53.21 99.15 52.96 99.29 52.7 98.85 52.46 98.43 52.72 98.28 53.21 98 99.55 71.25 99.55 10.97 99.91 10.97 99.94 10.92 99.94 10.41 100.08 10.41 100.55 10.68"/>
  </g>
</svg>