<?xml version="1.0" encoding="UTF-8"?>
<svg id="Layer_1" data-name="Layer 1" xmlns="http://www.w3.org/2000/svg" viewBox="0 0 226.28 32.43">
  <defs>
    <style>
      .cls-1 {
        fill: #171716;
      }
    </style>
  </defs>
  <path class="cls-1" d="M0,0h11.81c3.19,0,5.54.88,7.15,2.42,1.69,1.58,2.64,3.81,2.64,6.46,0,5.03-3.49,8.58-8.88,8.58h-6.13v8.77H0V0ZM11.41,12.33c2.35,0,3.67-1.39,3.67-3.49s-1.36-3.37-3.67-3.37h-4.81v6.86s4.8,0,4.8,0Z"/>
  <path class="cls-1" d="M23.55,7.45h5.72v2.93h.11c1.32-2.24,2.86-3.23,5.14-3.23.55,0,.92.04,1.17.15v5.13h-.15c-3.67-.51-6.02,1.28-6.02,5.36v8.44h-5.98V7.45Z"/>
  <path class="cls-1" d="M36.39,16.87c0-5.65,4.04-9.94,10.05-9.94s10.01,4.29,10.01,9.94c0,5.65-3.96,9.94-10.01,9.94s-10.05-4.29-10.05-9.94ZM50.4,16.87c0-3.41-1.39-5.72-4-5.72s-3.96,2.31-3.96,5.72,1.36,5.69,3.96,5.69,4-2.27,4-5.69Z"/>
  <path class="cls-1" d="M57.63,16.84c0-5.87,3.38-9.94,8.22-9.94,2.64,0,4.15,1.1,5.25,2.68h.11V0h5.98v26.23h-5.72v-2.53h-.07c-1.14,1.94-3.08,3.12-5.54,3.12-4.81,0-8.22-3.71-8.22-9.98ZM71.34,16.84c0-3.15-1.28-5.43-3.89-5.43-2.38,0-3.78,2.2-3.78,5.36s1.39,5.32,3.7,5.32c2.49,0,3.96-2.16,3.96-5.25Z"/>
  <path class="cls-1" d="M79.89,19.77V7.45h5.94v11.08c0,2.05.92,3.19,2.82,3.19,2.05,0,3.3-1.54,3.3-3.78V7.45h5.98v18.78h-5.72v-2.31h-.11c-1.36,1.83-3.01,2.86-5.61,2.86-4.33,0-6.6-2.82-6.6-7.01Z"/>
  <path class="cls-1" d="M99.95,16.87c0-5.65,3.89-9.94,9.83-9.94,5.1,0,8.36,2.97,8.91,7.19h-5.76c-.37-1.69-1.39-2.79-3.08-2.79-2.57,0-3.85,2.13-3.85,5.54s1.28,5.46,3.85,5.46c1.87,0,3.01-1.1,3.26-3.23h5.72c-.15,4.33-3.59,7.7-8.91,7.7-6.05,0-9.98-4.29-9.98-9.94Z"/>
  <path class="cls-1" d="M122.22,21.28v-10.09s-2.49,0-2.49,0v-3.74h2.49V1.5h5.83v5.94h3.41v3.74h-3.41v8.8c0,1.47.81,1.83,2.09,1.83.51,0,1.1-.04,1.32-.04v4.37c-.51.15-1.65.29-3.26.29-3.48,0-5.98-1.14-5.98-5.17Z"/>
  <path class="cls-1" d="M139.68,0h11.19c7.26,0,12.14,5.25,12.14,13.28,0,4.62-1.61,8.33-4.55,10.56-2.05,1.54-4.7,2.38-8,2.38h-10.78V0ZM149.99,20.76c4.26,0,6.46-2.68,6.46-7.48,0-4.77-2.31-7.85-6.38-7.85h-3.89v15.33s3.81,0,3.81,0Z"/>
  <path class="cls-1" d="M164.33,16.8c0-5.61,3.93-9.9,9.65-9.9,2.68,0,4.81.88,6.42,2.35,2.24,2.05,3.34,5.32,3.3,9.13h-13.5c.37,2.53,1.76,4.11,4.22,4.11,1.58,0,2.6-.7,3.12-1.87h5.83c-.4,1.69-1.5,3.3-3.15,4.44-1.58,1.1-3.48,1.72-5.87,1.72-6.2,0-10.01-4.29-10.01-9.98ZM177.64,14.82c-.22-2.24-1.61-3.67-3.56-3.67-2.27,0-3.45,1.43-3.85,3.67h7.41Z"/>
  <path class="cls-1" d="M185.71,7.45h5.72v2.27h.11c1.28-1.69,3.12-2.82,5.69-2.82,4.99,0,8.03,4.29,8.03,9.94,0,6.09-3.27,9.98-8.18,9.98-2.42,0-4.15-.95-5.32-2.53h-.07v8.14h-5.98V7.45ZM199.21,17.06c0-3.23-1.21-5.36-3.78-5.36s-3.93,2.31-3.93,5.36,1.47,5.14,4.03,5.14c2.27,0,3.67-1.94,3.67-5.14Z"/>
  <path class="cls-1" d="M208.2,21.28v-10.09s-2.49,0-2.49,0v-3.74h2.49V1.5h5.83v5.94h3.41v3.74h-3.41v8.8c0,1.47.81,1.83,2.09,1.83.51,0,1.1-.04,1.32-.04v4.37c-.51.15-1.65.29-3.26.29-3.48,0-5.98-1.14-5.98-5.17Z"/>
  <path class="cls-1" d="M226.28,23.04c0,1.94-1.47,3.38-3.45,3.38s-3.41-1.43-3.41-3.38,1.43-3.34,3.41-3.34,3.45,1.39,3.45,3.34Z"/>
</svg>