<?xml version="1.0" encoding="UTF-8"?>
<svg id="Layer_1" data-name="Layer 1" xmlns="http://www.w3.org/2000/svg" viewBox="0 0 1010.67 56">
  <defs>
    <style>
      .cls-1 {
        fill: #fff;
      }
    </style>
  </defs>
  <path class="cls-1" d="M17.63,7.25h1.72l4.36,16.33c.5,1.82,1.22,5.09,1.22,5.09h.07s.73-3.08,1.19-4.83l4.4-16.6h1.82l4.43,16.53c.46,1.75,1.22,4.89,1.22,4.89h.07s.69-3.17,1.19-5.09l4.27-16.33h1.65l-6.28,23.64h-1.85l-4.63-17.59c-.43-1.59-.93-4-.93-4h-.07s-.5,2.38-.93,4l-4.63,17.59h-1.92l-6.38-23.64Z"/>
  <path class="cls-1" d="M44.77,22.36c0-5.26,2.94-8.93,7.6-8.93,1.85,0,3.37.6,4.5,1.65,1.88,1.75,2.51,4.2,2.48,7.44h-12.93c.03,4.1,1.88,7.37,6.08,7.37,3.08,0,4.5-1.79,5.19-4.1h1.55c-.69,3.17-2.94,5.52-6.75,5.52-5.03,0-7.74-3.7-7.74-8.96ZM57.7,21.21c-.1-3.37-1.55-6.38-5.32-6.38s-5.59,2.78-5.92,6.38h11.24Z"/>
  <path class="cls-1" d="M66.33,22.4c0-5.69,3.21-8.96,7.18-8.96,2.74,0,4.7,1.29,5.79,3.47h.07V7.25h1.62v23.64h-1.62v-2.84h-.07c-1.26,2.12-3.08,3.27-5.75,3.27-4.56,0-7.21-3.84-7.21-8.93ZM79.52,22.43c0-4.33-2.08-7.61-5.89-7.61-3.5,0-5.65,3.04-5.65,7.61,0,4.1,1.79,7.54,5.62,7.54s5.92-3.01,5.92-7.54Z"/>
  <path class="cls-1" d="M83.46,22.36c0-5.26,2.94-8.93,7.6-8.93,1.85,0,3.37.6,4.5,1.65,1.88,1.75,2.51,4.2,2.48,7.44h-12.93c.03,4.1,1.88,7.37,6.08,7.37,3.08,0,4.5-1.79,5.19-4.1h1.55c-.69,3.17-2.94,5.52-6.75,5.52-5.03,0-7.74-3.7-7.74-8.96ZM96.39,21.21c-.1-3.37-1.55-6.38-5.32-6.38s-5.59,2.78-5.92,6.38h11.24Z"/>
  <path class="cls-1" d="M99.43,25.74h1.65c.23,2.81,2.25,4.2,5.09,4.2s4.6-1.42,4.6-3.67c0-1.85-.89-2.58-4.66-3.47-3.5-.83-6.12-1.75-6.12-4.79,0-2.84,2.58-4.56,5.82-4.56,3.93,0,5.69,2.08,6.08,4.86h-1.59c-.23-2.18-1.92-3.44-4.5-3.44-2.78,0-4.2,1.32-4.2,3.11,0,1.98,1.59,2.55,5.09,3.37,3.44.79,5.69,1.72,5.69,4.96,0,2.78-2.22,5.03-6.22,5.03-4.46,0-6.58-2.65-6.75-5.59Z"/>
  <path class="cls-1" d="M114.63,9.47c0-.63.46-1.12,1.12-1.12s1.16.5,1.16,1.12-.5,1.16-1.16,1.16-1.12-.53-1.12-1.16ZM114.93,13.8h1.62v17.09h-1.62V13.8Z"/>
  <path class="cls-1" d="M119.99,32.78h1.62c.46,2.05,2.48,2.91,4.89,2.91,3.97,0,5.62-2.22,5.62-5.26v-2.91h-.1c-1.26,2.12-2.98,3.21-5.65,3.21-4.56,0-7.24-3.47-7.24-8.56,0-5.69,3.37-8.73,7.34-8.73,2.74,0,4.43,1.32,5.55,3.31h.1v-2.94h1.62v16.6c0,1.95-.6,3.54-1.69,4.7-1.29,1.29-3.04,1.98-5.49,1.98-4.07,0-6.32-1.98-6.58-4.3ZM132.26,22.2c0-4.23-1.92-7.37-5.72-7.37-3.5,0-5.75,2.91-5.75,7.37,0,4.03,1.79,7.17,5.65,7.17s5.82-2.74,5.82-7.17Z"/>
  <path class="cls-1" d="M137.05,13.8h1.62v2.88h.07c1.12-1.82,3.04-3.21,5.95-3.21s5.22,1.82,5.22,5.22v12.2h-1.62v-12.04c0-2.81-1.52-4-3.9-4-3.04,0-5.72,2.15-5.72,4.99v11.04h-1.62V13.8Z"/>
  <path class="cls-1" d="M152.69,32.84c.73-.53.99-1.12,1.03-1.92-.63-.03-1.09-.46-1.09-1.16,0-.63.46-1.12,1.12-1.12.76,0,1.22.73,1.22,1.88,0,1.55-.83,2.84-2.28,3.47v-1.16Z"/>
  <path class="cls-1" d="M162.31,22.36c0-5.26,2.94-8.93,7.6-8.93,1.85,0,3.37.6,4.5,1.65,1.88,1.75,2.51,4.2,2.48,7.44h-12.93c.03,4.1,1.88,7.37,6.08,7.37,3.08,0,4.5-1.79,5.19-4.1h1.55c-.69,3.17-2.94,5.52-6.75,5.52-5.03,0-7.74-3.7-7.74-8.96ZM175.24,21.21c-.1-3.37-1.55-6.38-5.32-6.38s-5.59,2.78-5.92,6.38h11.24Z"/>
  <path class="cls-1" d="M179.37,13.8h1.62v2.88h.07c1.12-1.82,3.04-3.21,5.95-3.21s5.22,1.82,5.22,5.22v12.2h-1.62v-12.04c0-2.81-1.52-4-3.9-4-3.04,0-5.72,2.15-5.72,4.99v11.04h-1.62V13.8Z"/>
  <path class="cls-1" d="M195.44,32.78h1.62c.46,2.05,2.48,2.91,4.89,2.91,3.97,0,5.62-2.22,5.62-5.26v-2.91h-.1c-1.26,2.12-2.98,3.21-5.65,3.21-4.56,0-7.24-3.47-7.24-8.56,0-5.69,3.37-8.73,7.34-8.73,2.74,0,4.43,1.32,5.55,3.31h.1v-2.94h1.62v16.6c0,1.95-.6,3.54-1.69,4.7-1.29,1.29-3.04,1.98-5.49,1.98-4.07,0-6.32-1.98-6.58-4.3ZM207.7,22.2c0-4.23-1.92-7.37-5.72-7.37-3.5,0-5.75,2.91-5.75,7.37,0,4.03,1.79,7.17,5.65,7.17s5.82-2.74,5.82-7.17Z"/>
  <path class="cls-1" d="M212.3,9.47c0-.63.46-1.12,1.12-1.12s1.16.5,1.16,1.12-.5,1.16-1.16,1.16-1.12-.53-1.12-1.16ZM212.6,13.8h1.62v17.09h-1.62V13.8Z"/>
  <path class="cls-1" d="M217.62,13.8h1.62v2.88h.07c1.12-1.82,3.04-3.21,5.95-3.21s5.22,1.82,5.22,5.22v12.2h-1.62v-12.04c0-2.81-1.52-4-3.9-4-3.04,0-5.72,2.15-5.72,4.99v11.04h-1.62V13.8Z"/>
  <path class="cls-1" d="M232.83,22.36c0-5.26,2.94-8.93,7.6-8.93,1.85,0,3.37.6,4.5,1.65,1.88,1.75,2.51,4.2,2.48,7.44h-12.93c.03,4.1,1.88,7.37,6.08,7.37,3.08,0,4.5-1.79,5.19-4.1h1.55c-.69,3.17-2.94,5.52-6.75,5.52-5.03,0-7.74-3.7-7.74-8.96ZM245.76,21.21c-.1-3.37-1.55-6.38-5.32-6.38s-5.59,2.78-5.92,6.38h11.24Z"/>
  <path class="cls-1" d="M249.06,22.36c0-5.26,2.94-8.93,7.6-8.93,1.85,0,3.37.6,4.5,1.65,1.88,1.75,2.51,4.2,2.48,7.44h-12.93c.03,4.1,1.88,7.37,6.08,7.37,3.08,0,4.5-1.79,5.19-4.1h1.55c-.69,3.17-2.94,5.52-6.75,5.52-5.03,0-7.74-3.7-7.74-8.96ZM261.99,21.21c-.1-3.37-1.55-6.38-5.32-6.38s-5.59,2.78-5.92,6.38h11.24Z"/>
  <path class="cls-1" d="M266.12,13.8h1.62v3.37h.07c1.09-2.18,2.88-3.47,5.32-3.47h.23v1.62c-1.16-.07-2.35.17-3.37.96-1.36,1.06-2.25,2.68-2.25,4.73v9.89h-1.62V13.8Z"/>
  <path class="cls-1" d="M272.5,32.84c.73-.53.99-1.12,1.02-1.92-.63-.03-1.09-.46-1.09-1.16,0-.63.46-1.12,1.12-1.12.76,0,1.22.73,1.22,1.88,0,1.55-.83,2.84-2.28,3.47v-1.16Z"/>
  <path class="cls-1" d="M281.86,25.74h1.65c.23,2.81,2.25,4.2,5.09,4.2s4.6-1.42,4.6-3.67c0-1.85-.89-2.58-4.66-3.47-3.5-.83-6.12-1.75-6.12-4.79,0-2.84,2.58-4.56,5.82-4.56,3.94,0,5.69,2.08,6.08,4.86h-1.59c-.23-2.18-1.92-3.44-4.5-3.44-2.78,0-4.2,1.32-4.2,3.11,0,1.98,1.59,2.55,5.09,3.37,3.44.79,5.69,1.72,5.69,4.96,0,2.78-2.21,5.03-6.22,5.03-4.46,0-6.58-2.65-6.75-5.59Z"/>
  <path class="cls-1" d="M296.44,22.36c0-5.16,2.88-8.93,7.67-8.93s7.67,3.77,7.67,8.93-2.84,8.96-7.67,8.96-7.67-3.8-7.67-8.96ZM310.13,22.36c0-4.17-2.08-7.57-6.02-7.57s-6.02,3.41-6.02,7.57,2.08,7.57,6.02,7.57,6.02-3.41,6.02-7.57Z"/>
  <path class="cls-1" d="M314.13,26v-12.2h1.62v12.04c0,2.81,1.62,4.07,4.17,4.07,3.01,0,5.26-2.28,5.26-5.29v-10.81h1.62v17.09h-1.62v-2.61h-.07c-1.12,1.65-2.61,3.01-5.49,3.01-3.14,0-5.49-1.88-5.49-5.29Z"/>
  <path class="cls-1" d="M330.1,13.8h1.62v3.37h.07c1.09-2.18,2.88-3.47,5.32-3.47h.23v1.62c-1.16-.07-2.35.17-3.37.96-1.36,1.06-2.25,2.68-2.25,4.73v9.89h-1.62V13.8Z"/>
  <path class="cls-1" d="M337.7,22.36c0-5.16,2.58-8.93,7.47-8.93,3.57,0,6.05,1.85,6.58,5.29h-1.59c-.56-2.71-2.31-3.9-4.99-3.9-4.13,0-5.82,3.44-5.82,7.54s1.72,7.54,5.79,7.54c2.98,0,4.93-1.98,5.29-4.79h1.52c-.43,3.7-2.88,6.22-6.81,6.22-4.93,0-7.44-3.8-7.44-8.96Z"/>
  <path class="cls-1" d="M353.3,22.36c0-5.26,2.94-8.93,7.61-8.93,1.85,0,3.37.6,4.5,1.65,1.88,1.75,2.51,4.2,2.48,7.44h-12.93c.03,4.1,1.88,7.37,6.08,7.37,3.07,0,4.5-1.79,5.19-4.1h1.55c-.69,3.17-2.94,5.52-6.75,5.52-5.03,0-7.74-3.7-7.74-8.96ZM366.23,21.21c-.1-3.37-1.55-6.38-5.32-6.38s-5.59,2.78-5.92,6.38h11.24Z"/>
  <path class="cls-1" d="M369.64,32.84c.73-.53.99-1.12,1.02-1.92-.63-.03-1.09-.46-1.09-1.16,0-.63.46-1.12,1.12-1.12.76,0,1.22.73,1.22,1.88,0,1.55-.83,2.84-2.28,3.47v-1.16Z"/>
  <path class="cls-1" d="M380.08,13.8h1.62v2.68h.07c1.12-1.75,2.65-3.01,5.29-3.01,2.12,0,3.97,1.06,4.63,3.14h.1c1.12-1.95,3.01-3.14,5.65-3.14,2.84,0,5.16,1.82,5.16,5.22v12.2h-1.62v-12.04c0-2.81-1.55-4-3.9-4-2.68,0-4.93,1.72-4.93,4.99v11.04h-1.62v-12.04c0-2.81-1.62-4-3.77-4-2.68,0-5.06,2.15-5.06,4.99v11.04h-1.62V13.8Z"/>
  <path class="cls-1" d="M404.88,26.56c0-4.07,3.17-4.89,6.75-5.26,4.03-.4,4.96-.6,4.96-2.18v-.59c0-2.58-1.52-3.7-4.3-3.7-3.21,0-4.93,1.32-5.16,3.84h-1.65c.33-3.31,2.55-5.22,6.81-5.22,3.8,0,5.92,1.69,5.92,5.19v10.05c0,.93.5,1.19,1.09,1.19.23,0,.5-.07.79-.17h.1v1.19c-.26.13-.66.26-1.32.26-1.32,0-2.25-.73-2.25-2.31v-.6h-.1c-.96,1.36-2.68,3.08-6.18,3.08-3.14,0-5.46-1.62-5.46-4.76ZM416.59,24.81v-3.17c-1.19.6-3.01.83-4.76,1.03-3.01.33-5.29.73-5.29,3.97,0,2.41,1.79,3.34,3.97,3.34,3.87,0,6.08-2.58,6.08-5.16Z"/>
  <path class="cls-1" d="M422.04,13.8h1.62v2.88h.07c1.12-1.82,3.04-3.21,5.95-3.21s5.22,1.82,5.22,5.22v12.2h-1.62v-12.04c0-2.81-1.52-4-3.9-4-3.04,0-5.72,2.15-5.72,4.99v11.04h-1.62V13.8Z"/>
  <path class="cls-1" d="M437.94,26v-12.2h1.62v12.04c0,2.81,1.62,4.07,4.17,4.07,3.01,0,5.26-2.28,5.26-5.29v-10.81h1.62v17.09h-1.62v-2.61h-.07c-1.12,1.65-2.61,3.01-5.49,3.01-3.14,0-5.49-1.88-5.49-5.29Z"/>
  <path class="cls-1" d="M455.2,15.15h-2.55v-1.36h2.55v-3.24c0-2.28,1.22-3.44,3.67-3.44h1.03v1.42h-.93c-1.69,0-2.15.79-2.15,2.05v3.21h3.17v1.36h-3.17v15.74h-1.62v-15.74Z"/>
  <path class="cls-1" d="M460.52,26.56c0-4.07,3.17-4.89,6.75-5.26,4.03-.4,4.96-.6,4.96-2.18v-.59c0-2.58-1.52-3.7-4.3-3.7-3.21,0-4.93,1.32-5.16,3.84h-1.65c.33-3.31,2.55-5.22,6.81-5.22,3.8,0,5.92,1.69,5.92,5.19v10.05c0,.93.5,1.19,1.09,1.19.23,0,.5-.07.79-.17h.1v1.19c-.26.13-.66.26-1.32.26-1.32,0-2.25-.73-2.25-2.31v-.6h-.1c-.96,1.36-2.68,3.08-6.18,3.08-3.14,0-5.46-1.62-5.46-4.76ZM472.23,24.81v-3.17c-1.19.6-3.01.83-4.76,1.03-3.01.33-5.29.73-5.29,3.97,0,2.41,1.79,3.34,3.97,3.34,3.87,0,6.08-2.58,6.08-5.16Z"/>
  <path class="cls-1" d="M476.52,22.36c0-5.16,2.58-8.93,7.47-8.93,3.57,0,6.05,1.85,6.58,5.29h-1.59c-.56-2.71-2.31-3.9-4.99-3.9-4.13,0-5.82,3.44-5.82,7.54s1.72,7.54,5.79,7.54c2.98,0,4.93-1.98,5.29-4.79h1.52c-.43,3.7-2.88,6.22-6.81,6.22-4.93,0-7.44-3.8-7.44-8.96Z"/>
  <path class="cls-1" d="M494.41,28.12v-12.96h-2.65v-1.36h2.65v-5.16h1.62v5.16h3.11v1.36h-3.11v12.83c0,1.26.5,1.65,1.62,1.65.43,0,.99-.13,1.29-.3h.1v1.39c-.53.2-1.03.3-1.72.3-1.75,0-2.91-.89-2.91-2.91Z"/>
  <path class="cls-1" d="M501.62,26v-12.2h1.62v12.04c0,2.81,1.62,4.07,4.17,4.07,3.01,0,5.26-2.28,5.26-5.29v-10.81h1.62v17.09h-1.62v-2.61h-.07c-1.12,1.65-2.61,3.01-5.49,3.01-3.14,0-5.49-1.88-5.49-5.29Z"/>
  <path class="cls-1" d="M517.59,13.8h1.62v3.37h.07c1.09-2.18,2.88-3.47,5.32-3.47h.23v1.62c-1.16-.07-2.35.17-3.37.96-1.36,1.06-2.25,2.68-2.25,4.73v9.89h-1.62V13.8Z"/>
  <path class="cls-1" d="M525.19,22.36c0-5.26,2.94-8.93,7.61-8.93,1.85,0,3.37.6,4.5,1.65,1.88,1.75,2.51,4.2,2.48,7.44h-12.93c.03,4.1,1.88,7.37,6.08,7.37,3.08,0,4.5-1.79,5.19-4.1h1.55c-.69,3.17-2.94,5.52-6.75,5.52-5.03,0-7.74-3.7-7.74-8.96ZM538.12,21.21c-.1-3.37-1.55-6.38-5.32-6.38s-5.59,2.78-5.92,6.38h11.24Z"/>
  <path class="cls-1" d="M541.52,32.84c.73-.53.99-1.12,1.02-1.92-.63-.03-1.09-.46-1.09-1.16,0-.63.46-1.12,1.12-1.12.76,0,1.22.73,1.22,1.88,0,1.55-.83,2.84-2.28,3.47v-1.16Z"/>
  <path class="cls-1" d="M551.08,26.56c0-4.07,3.17-4.89,6.75-5.26,4.03-.4,4.96-.6,4.96-2.18v-.59c0-2.58-1.52-3.7-4.3-3.7-3.21,0-4.93,1.32-5.16,3.84h-1.65c.33-3.31,2.55-5.22,6.81-5.22,3.8,0,5.92,1.69,5.92,5.19v10.05c0,.93.5,1.19,1.09,1.19.23,0,.5-.07.79-.17h.1v1.19c-.26.13-.66.26-1.32.26-1.32,0-2.25-.73-2.25-2.31v-.6h-.1c-.96,1.36-2.68,3.08-6.18,3.08-3.14,0-5.46-1.62-5.46-4.76ZM562.78,24.81v-3.17c-1.19.6-3.01.83-4.76,1.03-3.01.33-5.29.73-5.29,3.97,0,2.41,1.79,3.34,3.97,3.34,3.87,0,6.08-2.58,6.08-5.16Z"/>
  <path class="cls-1" d="M568.24,13.8h1.62v2.88h.07c1.12-1.82,3.04-3.21,5.95-3.21s5.22,1.82,5.22,5.22v12.2h-1.62v-12.04c0-2.81-1.52-4-3.9-4-3.04,0-5.72,2.15-5.72,4.99v11.04h-1.62V13.8Z"/>
  <path class="cls-1" d="M583.44,22.4c0-5.69,3.21-8.96,7.18-8.96,2.74,0,4.7,1.29,5.79,3.47h.07V7.25h1.62v23.64h-1.62v-2.84h-.07c-1.26,2.12-3.08,3.27-5.75,3.27-4.56,0-7.21-3.84-7.21-8.93ZM596.64,22.43c0-4.33-2.08-7.61-5.89-7.61-3.5,0-5.65,3.04-5.65,7.61,0,4.1,1.79,7.54,5.62,7.54s5.92-3.01,5.92-7.54Z"/>
  <path class="cls-1" d="M605.89,22.4c0-5.69,3.21-8.96,7.18-8.96,2.74,0,4.7,1.29,5.79,3.47h.07V7.25h1.62v23.64h-1.62v-2.84h-.07c-1.26,2.12-3.08,3.27-5.75,3.27-4.56,0-7.21-3.84-7.21-8.93ZM619.09,22.43c0-4.33-2.08-7.61-5.89-7.61-3.5,0-5.65,3.04-5.65,7.61,0,4.1,1.79,7.54,5.62,7.54s5.92-3.01,5.92-7.54Z"/>
  <path class="cls-1" d="M623.02,22.36c0-5.26,2.94-8.93,7.61-8.93,1.85,0,3.37.6,4.5,1.65,1.88,1.75,2.51,4.2,2.48,7.44h-12.93c.03,4.1,1.88,7.37,6.08,7.37,3.08,0,4.5-1.79,5.19-4.1h1.55c-.69,3.17-2.94,5.52-6.75,5.52-5.03,0-7.74-3.7-7.74-8.96ZM635.95,21.21c-.1-3.37-1.55-6.38-5.32-6.38s-5.59,2.78-5.92,6.38h11.24Z"/>
  <path class="cls-1" d="M640.18,7.25h1.62v23.64h-1.62V7.25Z"/>
  <path class="cls-1" d="M645.01,9.47c0-.63.46-1.12,1.12-1.12s1.16.5,1.16,1.12-.5,1.16-1.16,1.16-1.12-.53-1.12-1.16ZM645.3,13.8h1.62v17.09h-1.62V13.8Z"/>
  <path class="cls-1" d="M648.97,13.8h1.72l3.77,10.85c.6,1.75,1.55,4.79,1.55,4.79h.07s.99-3.04,1.62-4.79l3.97-10.85h1.65l-6.25,17.09h-2.02l-6.08-17.09Z"/>
  <path class="cls-1" d="M663.95,22.36c0-5.26,2.94-8.93,7.61-8.93,1.85,0,3.37.6,4.5,1.65,1.88,1.75,2.51,4.2,2.48,7.44h-12.93c.03,4.1,1.88,7.37,6.08,7.37,3.07,0,4.5-1.79,5.19-4.1h1.55c-.69,3.17-2.94,5.52-6.75,5.52-5.03,0-7.74-3.7-7.74-8.96ZM676.88,21.21c-.1-3.37-1.55-6.38-5.32-6.38s-5.59,2.78-5.92,6.38h11.24Z"/>
  <path class="cls-1" d="M681.01,13.8h1.62v3.37h.07c1.09-2.18,2.88-3.47,5.32-3.47h.23v1.62c-1.16-.07-2.35.17-3.37.96-1.36,1.06-2.25,2.68-2.25,4.73v9.89h-1.62V13.8Z"/>
  <path class="cls-1" d="M694.93,22.36c0-5.26,2.94-8.93,7.61-8.93,1.85,0,3.37.6,4.5,1.65,1.88,1.75,2.51,4.2,2.48,7.44h-12.93c.03,4.1,1.88,7.37,6.08,7.37,3.07,0,4.5-1.79,5.19-4.1h1.55c-.69,3.17-2.94,5.52-6.75,5.52-5.03,0-7.74-3.7-7.74-8.96ZM707.86,21.21c-.1-3.37-1.55-6.38-5.32-6.38s-5.59,2.78-5.92,6.38h11.24Z"/>
  <path class="cls-1" d="M716.02,21.8l-5.72-8h1.92l4.73,6.84h.07l4.6-6.84h1.88l-5.49,7.97,6.45,9.13h-1.92l-5.49-7.97h-.07l-5.46,7.97h-1.88l6.38-9.09Z"/>
  <path class="cls-1" d="M724.42,22.36c0-5.16,2.58-8.93,7.47-8.93,3.57,0,6.05,1.85,6.58,5.29h-1.59c-.56-2.71-2.31-3.9-4.99-3.9-4.13,0-5.82,3.44-5.82,7.54s1.72,7.54,5.79,7.54c2.98,0,4.93-1.98,5.29-4.79h1.52c-.43,3.7-2.88,6.22-6.81,6.22-4.93,0-7.44-3.8-7.44-8.96Z"/>
  <path class="cls-1" d="M740.02,22.36c0-5.26,2.94-8.93,7.61-8.93,1.85,0,3.37.6,4.5,1.65,1.88,1.75,2.51,4.2,2.48,7.44h-12.93c.03,4.1,1.88,7.37,6.08,7.37,3.07,0,4.5-1.79,5.19-4.1h1.55c-.69,3.17-2.94,5.52-6.75,5.52-5.03,0-7.74-3.7-7.74-8.96ZM752.95,21.21c-.1-3.37-1.55-6.38-5.32-6.38s-5.59,2.78-5.92,6.38h11.24Z"/>
  <path class="cls-1" d="M757.08,13.8h1.62v3.27h.07c1.16-2.18,3.11-3.64,5.98-3.64,3.97,0,6.91,3.21,6.91,8.89,0,5.09-2.65,8.93-7.04,8.93-2.84,0-4.63-1.22-5.85-3.17h-.07v8.3h-1.62V13.8ZM770.01,22.36c0-4.56-1.98-7.54-5.49-7.54-3.8,0-5.98,3.27-5.98,7.61s2.15,7.47,6.02,7.47,5.46-3.47,5.46-7.54Z"/>
  <path class="cls-1" d="M775.1,28.12v-12.96h-2.65v-1.36h2.65v-5.16h1.62v5.16h3.11v1.36h-3.11v12.83c0,1.26.5,1.65,1.62,1.65.43,0,.99-.13,1.29-.3h.1v1.39c-.53.2-1.03.3-1.72.3-1.75,0-2.91-.89-2.91-2.91Z"/>
  <path class="cls-1" d="M782.24,9.47c0-.63.46-1.12,1.12-1.12s1.16.5,1.16,1.12-.5,1.16-1.16,1.16-1.12-.53-1.12-1.16ZM782.54,13.8h1.62v17.09h-1.62V13.8Z"/>
  <path class="cls-1" d="M786.74,22.36c0-5.16,2.88-8.93,7.67-8.93s7.67,3.77,7.67,8.93-2.84,8.96-7.67,8.96-7.67-3.8-7.67-8.96ZM800.43,22.36c0-4.17-2.08-7.57-6.02-7.57s-6.02,3.41-6.02,7.57,2.08,7.57,6.02,7.57,6.02-3.41,6.02-7.57Z"/>
  <path class="cls-1" d="M804.56,13.8h1.62v2.88h.07c1.12-1.82,3.04-3.21,5.95-3.21s5.22,1.82,5.22,5.22v12.2h-1.62v-12.04c0-2.81-1.52-4-3.9-4-3.04,0-5.72,2.15-5.72,4.99v11.04h-1.62V13.8Z"/>
  <path class="cls-1" d="M819.7,26.56c0-4.07,3.17-4.89,6.75-5.26,4.03-.4,4.96-.6,4.96-2.18v-.59c0-2.58-1.52-3.7-4.3-3.7-3.21,0-4.93,1.32-5.16,3.84h-1.65c.33-3.31,2.55-5.22,6.81-5.22,3.8,0,5.92,1.69,5.92,5.19v10.05c0,.93.5,1.19,1.09,1.19.23,0,.5-.07.79-.17h.1v1.19c-.26.13-.66.26-1.32.26-1.32,0-2.25-.73-2.25-2.31v-.6h-.1c-.96,1.36-2.68,3.08-6.18,3.08-3.14,0-5.46-1.62-5.46-4.76ZM831.41,24.81v-3.17c-1.19.6-3.01.83-4.76,1.03-3.01.33-5.29.73-5.29,3.97,0,2.41,1.79,3.34,3.97,3.34,3.87,0,6.08-2.58,6.08-5.16Z"/>
  <path class="cls-1" d="M836.96,7.25h1.62v23.64h-1.62V7.25Z"/>
  <path class="cls-1" d="M847.31,13.8h1.62v3.27h.07c1.16-2.18,3.11-3.64,5.98-3.64,3.97,0,6.91,3.21,6.91,8.89,0,5.09-2.65,8.93-7.04,8.93-2.84,0-4.63-1.22-5.85-3.17h-.07v8.3h-1.62V13.8ZM860.24,22.36c0-4.56-1.98-7.54-5.49-7.54-3.8,0-5.98,3.27-5.98,7.61s2.15,7.47,6.02,7.47,5.46-3.47,5.46-7.54Z"/>
  <path class="cls-1" d="M864.37,13.8h1.62v3.37h.07c1.09-2.18,2.88-3.47,5.32-3.47h.23v1.62c-1.16-.07-2.35.17-3.37.96-1.36,1.06-2.25,2.68-2.25,4.73v9.89h-1.62V13.8Z"/>
  <path class="cls-1" d="M871.97,22.36c0-5.16,2.88-8.93,7.67-8.93s7.67,3.77,7.67,8.93-2.84,8.96-7.67,8.96-7.67-3.8-7.67-8.96ZM885.66,22.36c0-4.17-2.08-7.57-6.02-7.57s-6.02,3.41-6.02,7.57,2.08,7.57,6.02,7.57,6.02-3.41,6.02-7.57Z"/>
  <path class="cls-1" d="M888.96,22.4c0-5.69,3.21-8.96,7.18-8.96,2.74,0,4.7,1.29,5.79,3.47h.07V7.25h1.62v23.64h-1.62v-2.84h-.07c-1.26,2.12-3.08,3.27-5.75,3.27-4.56,0-7.21-3.84-7.21-8.93ZM902.16,22.43c0-4.33-2.08-7.61-5.89-7.61-3.5,0-5.65,3.04-5.65,7.61,0,4.1,1.79,7.54,5.62,7.54s5.92-3.01,5.92-7.54Z"/>
  <path class="cls-1" d="M906.79,26v-12.2h1.62v12.04c0,2.81,1.62,4.07,4.17,4.07,3.01,0,5.26-2.28,5.26-5.29v-10.81h1.62v17.09h-1.62v-2.61h-.07c-1.12,1.65-2.61,3.01-5.49,3.01-3.14,0-5.49-1.88-5.49-5.29Z"/>
  <path class="cls-1" d="M921.93,22.36c0-5.16,2.58-8.93,7.47-8.93,3.57,0,6.05,1.85,6.58,5.29h-1.59c-.56-2.71-2.31-3.9-4.99-3.9-4.13,0-5.82,3.44-5.82,7.54s1.72,7.54,5.79,7.54c2.98,0,4.93-1.98,5.29-4.79h1.52c-.43,3.7-2.88,6.22-6.81,6.22-4.93,0-7.44-3.8-7.44-8.96Z"/>
  <path class="cls-1" d="M939.81,28.12v-12.96h-2.65v-1.36h2.65v-5.16h1.62v5.16h3.11v1.36h-3.11v12.83c0,1.26.5,1.65,1.62,1.65.43,0,.99-.13,1.29-.3h.1v1.39c-.53.2-1.03.3-1.72.3-1.75,0-2.91-.89-2.91-2.91Z"/>
  <path class="cls-1" d="M945.73,25.74h1.65c.23,2.81,2.25,4.2,5.09,4.2s4.6-1.42,4.6-3.67c0-1.85-.89-2.58-4.66-3.47-3.5-.83-6.12-1.75-6.12-4.79,0-2.84,2.58-4.56,5.82-4.56,3.94,0,5.69,2.08,6.08,4.86h-1.59c-.23-2.18-1.92-3.44-4.5-3.44-2.78,0-4.2,1.32-4.2,3.11,0,1.98,1.59,2.55,5.09,3.37,3.44.79,5.69,1.72,5.69,4.96,0,2.78-2.21,5.03-6.22,5.03-4.46,0-6.58-2.65-6.75-5.59Z"/>
  <path class="cls-1" d="M960.68,29.8c0-.66.46-1.16,1.16-1.16s1.19.5,1.19,1.16-.5,1.19-1.19,1.19-1.16-.53-1.16-1.19Z"/>
</svg>